<mxfile host="app.diagrams.net" modified="2023-10-12T01:24:48.066Z" agent="Mozilla/5.0 (Windows NT 10.0; Win64; x64) AppleWebKit/537.36 (KHTML, like Gecko) Chrome/118.0.0.0 Safari/537.36 Edg/118.0.2088.41" etag="balCqYetkGGwrVah1IGk" version="22.0.4" type="onedrive">
  <diagram name="Page-1" id="2JFDs4tLf4XPl8ZN76HY">
    <mxGraphModel grid="1" page="1" gridSize="10" guides="1" tooltips="1" connect="1" arrows="1" fold="1" pageScale="1" pageWidth="1654" pageHeight="1169" math="0" shadow="0">
      <root>
        <mxCell id="0" />
        <mxCell id="1" parent="0" />
        <mxCell id="KOn1nOkOw1SVRUnO-NM9-1" value="USER" style="whiteSpace=wrap;html=1;aspect=fixed;fillColor=#CC6600;strokeColor=#d79b00;" vertex="1" parent="1">
          <mxGeometry x="320" y="350" width="80" height="80" as="geometry" />
        </mxCell>
        <mxCell id="KOn1nOkOw1SVRUnO-NM9-2" value="" style="endArrow=classic;html=1;rounded=0;exitX=1;exitY=0.5;exitDx=0;exitDy=0;strokeWidth=2;entryX=0;entryY=0.25;entryDx=0;entryDy=0;" edge="1" parent="1" target="KOn1nOkOw1SVRUnO-NM9-6">
          <mxGeometry width="50" height="50" relative="1" as="geometry">
            <mxPoint x="400" y="370" as="sourcePoint" />
            <mxPoint x="600" y="370" as="targetPoint" />
            <Array as="points">
              <mxPoint x="480" y="370" />
            </Array>
          </mxGeometry>
        </mxCell>
        <mxCell id="KOn1nOkOw1SVRUnO-NM9-104" value="blog details" style="edgeLabel;html=1;align=center;verticalAlign=middle;resizable=0;points=[];" connectable="0" vertex="1" parent="KOn1nOkOw1SVRUnO-NM9-2">
          <mxGeometry x="0.1055" y="-1" relative="1" as="geometry">
            <mxPoint as="offset" />
          </mxGeometry>
        </mxCell>
        <mxCell id="KOn1nOkOw1SVRUnO-NM9-6" value="1.0" style="swimlane;whiteSpace=wrap;html=1;fillColor=#0066CC;" vertex="1" parent="1">
          <mxGeometry x="496.77" y="350" width="160" height="80" as="geometry" />
        </mxCell>
        <mxCell id="KOn1nOkOw1SVRUnO-NM9-7" value="create blog" style="text;html=1;align=center;verticalAlign=middle;resizable=0;points=[];autosize=1;strokeColor=none;fillColor=none;" vertex="1" parent="KOn1nOkOw1SVRUnO-NM9-6">
          <mxGeometry x="40" y="40" width="80" height="30" as="geometry" />
        </mxCell>
        <mxCell id="KOn1nOkOw1SVRUnO-NM9-70" value="Admin" style="whiteSpace=wrap;html=1;aspect=fixed;fillColor=#CC6600;strokeColor=#d79b00;" vertex="1" parent="1">
          <mxGeometry x="1080" y="80" width="80" height="80" as="geometry" />
        </mxCell>
        <mxCell id="KOn1nOkOw1SVRUnO-NM9-95" value="D2" style="swimlane;horizontal=0;whiteSpace=wrap;html=1;startSize=23;" vertex="1" parent="1">
          <mxGeometry x="748.1" y="370" width="200" height="40" as="geometry" />
        </mxCell>
        <mxCell id="KOn1nOkOw1SVRUnO-NM9-96" value="Blogs Details" style="text;html=1;align=center;verticalAlign=middle;resizable=0;points=[];autosize=1;strokeColor=none;fillColor=none;" vertex="1" parent="1">
          <mxGeometry x="813.1" y="378" width="90" height="30" as="geometry" />
        </mxCell>
        <mxCell id="KOn1nOkOw1SVRUnO-NM9-100" value="D3" style="swimlane;horizontal=0;whiteSpace=wrap;html=1;startSize=23;" vertex="1" parent="1">
          <mxGeometry x="860" y="680" width="200" height="40" as="geometry" />
        </mxCell>
        <mxCell id="KOn1nOkOw1SVRUnO-NM9-101" value="Ratings Data" style="text;html=1;align=center;verticalAlign=middle;resizable=0;points=[];autosize=1;strokeColor=none;fillColor=none;" vertex="1" parent="1">
          <mxGeometry x="925" y="688" width="90" height="30" as="geometry" />
        </mxCell>
        <mxCell id="KOn1nOkOw1SVRUnO-NM9-102" value="D4" style="swimlane;horizontal=0;whiteSpace=wrap;html=1;startSize=23;" vertex="1" parent="1">
          <mxGeometry x="860" y="800" width="200" height="40" as="geometry" />
        </mxCell>
        <mxCell id="KOn1nOkOw1SVRUnO-NM9-103" value="Comments Data" style="text;html=1;align=center;verticalAlign=middle;resizable=0;points=[];autosize=1;strokeColor=none;fillColor=none;" vertex="1" parent="1">
          <mxGeometry x="915" y="808" width="110" height="30" as="geometry" />
        </mxCell>
        <mxCell id="KOn1nOkOw1SVRUnO-NM9-107" value="" style="endArrow=none;html=1;rounded=0;exitX=1;exitY=0.5;exitDx=0;exitDy=0;strokeWidth=2;endFill=0;startArrow=classic;startFill=1;entryX=0;entryY=0.75;entryDx=0;entryDy=0;" edge="1" parent="1" target="KOn1nOkOw1SVRUnO-NM9-6">
          <mxGeometry width="50" height="50" relative="1" as="geometry">
            <mxPoint x="401" y="410" as="sourcePoint" />
            <mxPoint x="410" y="490" as="targetPoint" />
            <Array as="points">
              <mxPoint x="481" y="410" />
            </Array>
          </mxGeometry>
        </mxCell>
        <mxCell id="KOn1nOkOw1SVRUnO-NM9-139" value="error" style="edgeLabel;html=1;align=center;verticalAlign=middle;resizable=0;points=[];" connectable="0" vertex="1" parent="KOn1nOkOw1SVRUnO-NM9-107">
          <mxGeometry x="0.0869" relative="1" as="geometry">
            <mxPoint as="offset" />
          </mxGeometry>
        </mxCell>
        <mxCell id="KOn1nOkOw1SVRUnO-NM9-110" value="2.0" style="swimlane;whiteSpace=wrap;html=1;fillColor=#0066CC;" vertex="1" parent="1">
          <mxGeometry x="496.77" y="180" width="160" height="80" as="geometry" />
        </mxCell>
        <mxCell id="KOn1nOkOw1SVRUnO-NM9-111" value="save image" style="text;html=1;align=center;verticalAlign=middle;resizable=0;points=[];autosize=1;strokeColor=none;fillColor=none;" vertex="1" parent="KOn1nOkOw1SVRUnO-NM9-110">
          <mxGeometry x="40" y="40" width="80" height="30" as="geometry" />
        </mxCell>
        <mxCell id="KOn1nOkOw1SVRUnO-NM9-112" value="3.0" style="swimlane;whiteSpace=wrap;html=1;fillColor=#0066CC;" vertex="1" parent="1">
          <mxGeometry x="788.1" y="180" width="160" height="80" as="geometry" />
        </mxCell>
        <mxCell id="KOn1nOkOw1SVRUnO-NM9-113" value="edit blog" style="text;html=1;align=center;verticalAlign=middle;resizable=0;points=[];autosize=1;strokeColor=none;fillColor=none;" vertex="1" parent="KOn1nOkOw1SVRUnO-NM9-112">
          <mxGeometry x="45" y="40" width="70" height="30" as="geometry" />
        </mxCell>
        <mxCell id="KOn1nOkOw1SVRUnO-NM9-114" value="" style="endArrow=none;html=1;rounded=0;strokeWidth=2;entryX=0.75;entryY=1;entryDx=0;entryDy=0;endFill=0;startArrow=classic;startFill=1;" edge="1" parent="1" target="KOn1nOkOw1SVRUnO-NM9-110">
          <mxGeometry width="50" height="50" relative="1" as="geometry">
            <mxPoint x="617.1" y="350" as="sourcePoint" />
            <mxPoint x="837.1" y="336.67" as="targetPoint" />
            <Array as="points" />
          </mxGeometry>
        </mxCell>
        <mxCell id="KOn1nOkOw1SVRUnO-NM9-115" value="error" style="edgeLabel;html=1;align=center;verticalAlign=middle;resizable=0;points=[];" connectable="0" vertex="1" parent="KOn1nOkOw1SVRUnO-NM9-114">
          <mxGeometry x="0.1055" y="-1" relative="1" as="geometry">
            <mxPoint as="offset" />
          </mxGeometry>
        </mxCell>
        <mxCell id="KOn1nOkOw1SVRUnO-NM9-116" value="" style="endArrow=none;html=1;rounded=0;exitX=0.25;exitY=1;exitDx=0;exitDy=0;strokeWidth=2;entryX=0.25;entryY=0;entryDx=0;entryDy=0;endFill=0;startArrow=classic;startFill=1;" edge="1" parent="1" source="KOn1nOkOw1SVRUnO-NM9-110" target="KOn1nOkOw1SVRUnO-NM9-6">
          <mxGeometry width="50" height="50" relative="1" as="geometry">
            <mxPoint x="398.1" y="290" as="sourcePoint" />
            <mxPoint x="547.1" y="290" as="targetPoint" />
            <Array as="points" />
          </mxGeometry>
        </mxCell>
        <mxCell id="KOn1nOkOw1SVRUnO-NM9-117" value="image" style="edgeLabel;html=1;align=center;verticalAlign=middle;resizable=0;points=[];" connectable="0" vertex="1" parent="KOn1nOkOw1SVRUnO-NM9-116">
          <mxGeometry x="0.1055" y="-1" relative="1" as="geometry">
            <mxPoint as="offset" />
          </mxGeometry>
        </mxCell>
        <mxCell id="KOn1nOkOw1SVRUnO-NM9-124" value="" style="endArrow=none;html=1;rounded=0;strokeWidth=2;endFill=0;startArrow=classic;startFill=1;" edge="1" parent="1">
          <mxGeometry width="50" height="50" relative="1" as="geometry">
            <mxPoint x="658.1" y="210" as="sourcePoint" />
            <mxPoint x="788.1" y="210" as="targetPoint" />
            <Array as="points" />
          </mxGeometry>
        </mxCell>
        <mxCell id="KOn1nOkOw1SVRUnO-NM9-125" value="image" style="edgeLabel;html=1;align=center;verticalAlign=middle;resizable=0;points=[];" connectable="0" vertex="1" parent="KOn1nOkOw1SVRUnO-NM9-124">
          <mxGeometry x="0.1055" y="-1" relative="1" as="geometry">
            <mxPoint as="offset" />
          </mxGeometry>
        </mxCell>
        <mxCell id="KOn1nOkOw1SVRUnO-NM9-126" value="" style="endArrow=none;html=1;rounded=0;strokeWidth=2;entryX=1;entryY=0.75;entryDx=0;entryDy=0;endFill=0;startArrow=classic;startFill=1;exitX=0;exitY=0.75;exitDx=0;exitDy=0;" edge="1" parent="1" source="KOn1nOkOw1SVRUnO-NM9-112" target="KOn1nOkOw1SVRUnO-NM9-110">
          <mxGeometry width="50" height="50" relative="1" as="geometry">
            <mxPoint x="718.1" y="310" as="sourcePoint" />
            <mxPoint x="718.1" y="220" as="targetPoint" />
            <Array as="points" />
          </mxGeometry>
        </mxCell>
        <mxCell id="KOn1nOkOw1SVRUnO-NM9-127" value="error" style="edgeLabel;html=1;align=center;verticalAlign=middle;resizable=0;points=[];" connectable="0" vertex="1" parent="KOn1nOkOw1SVRUnO-NM9-126">
          <mxGeometry x="0.1055" y="-1" relative="1" as="geometry">
            <mxPoint as="offset" />
          </mxGeometry>
        </mxCell>
        <mxCell id="KOn1nOkOw1SVRUnO-NM9-128" value="" style="endArrow=none;html=1;rounded=0;strokeWidth=2;entryX=0.25;entryY=0;entryDx=0;entryDy=0;endFill=0;startArrow=classic;startFill=1;exitX=0.75;exitY=0;exitDx=0;exitDy=0;" edge="1" parent="1" source="KOn1nOkOw1SVRUnO-NM9-1" target="KOn1nOkOw1SVRUnO-NM9-112">
          <mxGeometry width="50" height="50" relative="1" as="geometry">
            <mxPoint x="1031" y="100" as="sourcePoint" />
            <mxPoint x="900" y="100" as="targetPoint" />
            <Array as="points">
              <mxPoint x="380" y="160" />
              <mxPoint x="828" y="160" />
            </Array>
          </mxGeometry>
        </mxCell>
        <mxCell id="KOn1nOkOw1SVRUnO-NM9-129" value="error" style="edgeLabel;html=1;align=center;verticalAlign=middle;resizable=0;points=[];" connectable="0" vertex="1" parent="KOn1nOkOw1SVRUnO-NM9-128">
          <mxGeometry x="0.1055" y="-1" relative="1" as="geometry">
            <mxPoint as="offset" />
          </mxGeometry>
        </mxCell>
        <mxCell id="KOn1nOkOw1SVRUnO-NM9-130" value="" style="endArrow=none;html=1;rounded=0;strokeWidth=2;endFill=0;startArrow=classic;startFill=1;exitX=0.75;exitY=0;exitDx=0;exitDy=0;entryX=0.25;entryY=0;entryDx=0;entryDy=0;" edge="1" parent="1" source="KOn1nOkOw1SVRUnO-NM9-112" target="KOn1nOkOw1SVRUnO-NM9-1">
          <mxGeometry width="50" height="50" relative="1" as="geometry">
            <mxPoint x="860" y="260" as="sourcePoint" />
            <mxPoint x="520" y="80" as="targetPoint" />
            <Array as="points">
              <mxPoint x="908" y="140" />
              <mxPoint x="340" y="140" />
            </Array>
          </mxGeometry>
        </mxCell>
        <mxCell id="KOn1nOkOw1SVRUnO-NM9-131" value="new blog data" style="edgeLabel;html=1;align=center;verticalAlign=middle;resizable=0;points=[];" connectable="0" vertex="1" parent="KOn1nOkOw1SVRUnO-NM9-130">
          <mxGeometry x="0.1055" y="-1" relative="1" as="geometry">
            <mxPoint as="offset" />
          </mxGeometry>
        </mxCell>
        <mxCell id="KOn1nOkOw1SVRUnO-NM9-132" value="" style="endArrow=none;html=1;rounded=0;strokeWidth=2;endFill=0;startArrow=classic;startFill=1;" edge="1" parent="1">
          <mxGeometry width="50" height="50" relative="1" as="geometry">
            <mxPoint x="818.1" y="260" as="sourcePoint" />
            <mxPoint x="818.1" y="370" as="targetPoint" />
            <Array as="points" />
          </mxGeometry>
        </mxCell>
        <mxCell id="KOn1nOkOw1SVRUnO-NM9-133" value="old blog data" style="edgeLabel;html=1;align=center;verticalAlign=middle;resizable=0;points=[];" connectable="0" vertex="1" parent="KOn1nOkOw1SVRUnO-NM9-132">
          <mxGeometry x="0.1055" y="-1" relative="1" as="geometry">
            <mxPoint as="offset" />
          </mxGeometry>
        </mxCell>
        <mxCell id="KOn1nOkOw1SVRUnO-NM9-134" value="" style="endArrow=none;html=1;rounded=0;strokeWidth=2;endFill=0;startArrow=classic;startFill=1;entryX=0.75;entryY=1;entryDx=0;entryDy=0;" edge="1" parent="1" target="KOn1nOkOw1SVRUnO-NM9-112">
          <mxGeometry width="50" height="50" relative="1" as="geometry">
            <mxPoint x="908.1" y="370" as="sourcePoint" />
            <mxPoint x="898.1" y="290" as="targetPoint" />
            <Array as="points" />
          </mxGeometry>
        </mxCell>
        <mxCell id="KOn1nOkOw1SVRUnO-NM9-135" value="new blog data" style="edgeLabel;html=1;align=center;verticalAlign=middle;resizable=0;points=[];" connectable="0" vertex="1" parent="KOn1nOkOw1SVRUnO-NM9-134">
          <mxGeometry x="0.1055" y="-1" relative="1" as="geometry">
            <mxPoint as="offset" />
          </mxGeometry>
        </mxCell>
        <mxCell id="KOn1nOkOw1SVRUnO-NM9-136" value="" style="endArrow=none;html=1;rounded=0;strokeWidth=2;entryX=1;entryY=0.5;entryDx=0;entryDy=0;endFill=0;startArrow=classic;startFill=1;exitX=0;exitY=0.5;exitDx=0;exitDy=0;" edge="1" parent="1" source="KOn1nOkOw1SVRUnO-NM9-95" target="KOn1nOkOw1SVRUnO-NM9-6">
          <mxGeometry width="50" height="50" relative="1" as="geometry">
            <mxPoint x="868.1" y="280" as="sourcePoint" />
            <mxPoint x="868.1" y="390" as="targetPoint" />
            <Array as="points" />
          </mxGeometry>
        </mxCell>
        <mxCell id="KOn1nOkOw1SVRUnO-NM9-137" value="blog data" style="edgeLabel;html=1;align=center;verticalAlign=middle;resizable=0;points=[];" connectable="0" vertex="1" parent="KOn1nOkOw1SVRUnO-NM9-136">
          <mxGeometry x="0.1055" y="-1" relative="1" as="geometry">
            <mxPoint as="offset" />
          </mxGeometry>
        </mxCell>
        <mxCell id="KOn1nOkOw1SVRUnO-NM9-140" value="" style="endArrow=classic;html=1;rounded=0;exitX=0.75;exitY=1;exitDx=0;exitDy=0;entryX=0;entryY=0.25;entryDx=0;entryDy=0;strokeWidth=2;" edge="1" parent="1" source="KOn1nOkOw1SVRUnO-NM9-1" target="KOn1nOkOw1SVRUnO-NM9-141">
          <mxGeometry width="50" height="50" relative="1" as="geometry">
            <mxPoint x="570" y="530" as="sourcePoint" />
            <mxPoint x="500" y="500" as="targetPoint" />
            <Array as="points">
              <mxPoint x="380" y="500" />
            </Array>
          </mxGeometry>
        </mxCell>
        <mxCell id="KOn1nOkOw1SVRUnO-NM9-143" value="delete blog" style="edgeLabel;html=1;align=center;verticalAlign=middle;resizable=0;points=[];" connectable="0" vertex="1" parent="KOn1nOkOw1SVRUnO-NM9-140">
          <mxGeometry x="0.1731" y="2" relative="1" as="geometry">
            <mxPoint as="offset" />
          </mxGeometry>
        </mxCell>
        <mxCell id="KOn1nOkOw1SVRUnO-NM9-141" value="4.0" style="swimlane;whiteSpace=wrap;html=1;fillColor=#0066CC;startSize=23;" vertex="1" parent="1">
          <mxGeometry x="600" y="480" width="160" height="80" as="geometry" />
        </mxCell>
        <mxCell id="KOn1nOkOw1SVRUnO-NM9-142" value="delete blog" style="text;html=1;align=center;verticalAlign=middle;resizable=0;points=[];autosize=1;strokeColor=none;fillColor=none;" vertex="1" parent="KOn1nOkOw1SVRUnO-NM9-141">
          <mxGeometry x="40" y="40" width="80" height="30" as="geometry" />
        </mxCell>
        <mxCell id="KOn1nOkOw1SVRUnO-NM9-144" value="" style="endArrow=none;html=1;rounded=0;exitX=0.25;exitY=1;exitDx=0;exitDy=0;strokeWidth=2;endFill=0;startArrow=classic;startFill=1;entryX=0;entryY=0.75;entryDx=0;entryDy=0;" edge="1" parent="1" source="KOn1nOkOw1SVRUnO-NM9-1">
          <mxGeometry width="50" height="50" relative="1" as="geometry">
            <mxPoint x="504" y="540" as="sourcePoint" />
            <mxPoint x="600" y="540" as="targetPoint" />
            <Array as="points">
              <mxPoint x="340" y="540" />
              <mxPoint x="584" y="540" />
            </Array>
          </mxGeometry>
        </mxCell>
        <mxCell id="KOn1nOkOw1SVRUnO-NM9-145" value="error/confirmation" style="edgeLabel;html=1;align=center;verticalAlign=middle;resizable=0;points=[];" connectable="0" vertex="1" parent="KOn1nOkOw1SVRUnO-NM9-144">
          <mxGeometry x="0.0869" relative="1" as="geometry">
            <mxPoint as="offset" />
          </mxGeometry>
        </mxCell>
        <mxCell id="KOn1nOkOw1SVRUnO-NM9-146" value="" style="endArrow=none;html=1;rounded=0;strokeWidth=2;endFill=0;startArrow=classic;startFill=1;entryX=0.25;entryY=1;entryDx=0;entryDy=0;exitX=0.98;exitY=0.137;exitDx=0;exitDy=0;exitPerimeter=0;" edge="1" parent="1" source="KOn1nOkOw1SVRUnO-NM9-141" target="KOn1nOkOw1SVRUnO-NM9-95">
          <mxGeometry width="50" height="50" relative="1" as="geometry">
            <mxPoint x="760" y="510" as="sourcePoint" />
            <mxPoint x="800" y="420" as="targetPoint" />
            <Array as="points">
              <mxPoint x="798" y="490" />
            </Array>
          </mxGeometry>
        </mxCell>
        <mxCell id="KOn1nOkOw1SVRUnO-NM9-147" value="blog" style="edgeLabel;html=1;align=center;verticalAlign=middle;resizable=0;points=[];" connectable="0" vertex="1" parent="KOn1nOkOw1SVRUnO-NM9-146">
          <mxGeometry x="0.0869" relative="1" as="geometry">
            <mxPoint as="offset" />
          </mxGeometry>
        </mxCell>
        <mxCell id="KOn1nOkOw1SVRUnO-NM9-148" value="" style="endArrow=none;html=1;rounded=0;strokeWidth=2;endFill=0;startArrow=classic;startFill=1;entryX=1;entryY=0.5;entryDx=0;entryDy=0;" edge="1" parent="1" target="KOn1nOkOw1SVRUnO-NM9-141">
          <mxGeometry width="50" height="50" relative="1" as="geometry">
            <mxPoint x="840" y="410" as="sourcePoint" />
            <mxPoint x="527" y="440" as="targetPoint" />
            <Array as="points">
              <mxPoint x="840" y="520" />
            </Array>
          </mxGeometry>
        </mxCell>
        <mxCell id="KOn1nOkOw1SVRUnO-NM9-149" value="delete" style="edgeLabel;html=1;align=center;verticalAlign=middle;resizable=0;points=[];" connectable="0" vertex="1" parent="KOn1nOkOw1SVRUnO-NM9-148">
          <mxGeometry x="0.0869" relative="1" as="geometry">
            <mxPoint as="offset" />
          </mxGeometry>
        </mxCell>
        <mxCell id="KOn1nOkOw1SVRUnO-NM9-150" value="" style="endArrow=none;html=1;rounded=0;strokeWidth=2;endFill=0;startArrow=classic;startFill=1;entryX=0;entryY=0.25;entryDx=0;entryDy=0;" edge="1" parent="1" target="KOn1nOkOw1SVRUnO-NM9-1">
          <mxGeometry width="50" height="50" relative="1" as="geometry">
            <mxPoint x="200" y="210" as="sourcePoint" />
            <mxPoint x="320" y="370" as="targetPoint" />
            <Array as="points">
              <mxPoint x="260" y="210" />
              <mxPoint x="260" y="370" />
              <mxPoint x="304" y="370" />
            </Array>
          </mxGeometry>
        </mxCell>
        <mxCell id="KOn1nOkOw1SVRUnO-NM9-151" value="like/dislike blog" style="edgeLabel;html=1;align=center;verticalAlign=middle;resizable=0;points=[];" connectable="0" vertex="1" parent="KOn1nOkOw1SVRUnO-NM9-150">
          <mxGeometry x="0.0869" relative="1" as="geometry">
            <mxPoint as="offset" />
          </mxGeometry>
        </mxCell>
        <mxCell id="KOn1nOkOw1SVRUnO-NM9-152" value="5.0" style="swimlane;whiteSpace=wrap;html=1;fillColor=#0066CC;startSize=23;" vertex="1" parent="1">
          <mxGeometry x="40" y="170" width="160" height="80" as="geometry" />
        </mxCell>
        <mxCell id="KOn1nOkOw1SVRUnO-NM9-153" value="like/dislike blog" style="text;html=1;align=center;verticalAlign=middle;resizable=0;points=[];autosize=1;strokeColor=none;fillColor=none;" vertex="1" parent="KOn1nOkOw1SVRUnO-NM9-152">
          <mxGeometry x="30" y="40" width="100" height="30" as="geometry" />
        </mxCell>
        <mxCell id="KOn1nOkOw1SVRUnO-NM9-154" value="" style="endArrow=none;html=1;rounded=0;strokeWidth=2;endFill=0;startArrow=none;startFill=0;entryX=1;entryY=0.25;entryDx=0;entryDy=0;exitX=0.5;exitY=0;exitDx=0;exitDy=0;" edge="1" parent="1" source="KOn1nOkOw1SVRUnO-NM9-100" target="KOn1nOkOw1SVRUnO-NM9-152">
          <mxGeometry width="50" height="50" relative="1" as="geometry">
            <mxPoint x="960" y="550" as="sourcePoint" />
            <mxPoint x="240" y="170" as="targetPoint" />
            <Array as="points">
              <mxPoint x="960" y="120" />
              <mxPoint x="730" y="120" />
              <mxPoint x="260" y="120" />
              <mxPoint x="260" y="190" />
            </Array>
          </mxGeometry>
        </mxCell>
        <mxCell id="KOn1nOkOw1SVRUnO-NM9-155" value="check if user has liked/disliked" style="edgeLabel;html=1;align=center;verticalAlign=middle;resizable=0;points=[];" connectable="0" vertex="1" parent="KOn1nOkOw1SVRUnO-NM9-154">
          <mxGeometry x="0.0869" relative="1" as="geometry">
            <mxPoint as="offset" />
          </mxGeometry>
        </mxCell>
        <mxCell id="KOn1nOkOw1SVRUnO-NM9-158" value="" style="endArrow=none;html=1;rounded=0;strokeWidth=2;endFill=0;startArrow=classic;startFill=1;entryX=0.75;entryY=0;entryDx=0;entryDy=0;" edge="1" parent="1" target="KOn1nOkOw1SVRUnO-NM9-152">
          <mxGeometry width="50" height="50" relative="1" as="geometry">
            <mxPoint x="980" y="680" as="sourcePoint" />
            <mxPoint x="180" y="130" as="targetPoint" />
            <Array as="points">
              <mxPoint x="980" y="100" />
              <mxPoint x="160" y="100" />
            </Array>
          </mxGeometry>
        </mxCell>
        <mxCell id="KOn1nOkOw1SVRUnO-NM9-159" value="like/dislike blog" style="edgeLabel;html=1;align=center;verticalAlign=middle;resizable=0;points=[];" connectable="0" vertex="1" parent="KOn1nOkOw1SVRUnO-NM9-158">
          <mxGeometry x="0.0869" relative="1" as="geometry">
            <mxPoint as="offset" />
          </mxGeometry>
        </mxCell>
        <mxCell id="KOn1nOkOw1SVRUnO-NM9-160" value="" style="endArrow=none;html=1;rounded=0;strokeWidth=2;endFill=0;startArrow=classic;startFill=1;entryX=1;entryY=0.5;entryDx=0;entryDy=0;exitX=0.5;exitY=0;exitDx=0;exitDy=0;" edge="1" parent="1" source="KOn1nOkOw1SVRUnO-NM9-152" target="KOn1nOkOw1SVRUnO-NM9-95">
          <mxGeometry width="50" height="50" relative="1" as="geometry">
            <mxPoint x="90" y="80" as="sourcePoint" />
            <mxPoint x="1090.5" y="378" as="targetPoint" />
            <Array as="points">
              <mxPoint x="120" y="80" />
              <mxPoint x="1000" y="80" />
              <mxPoint x="1000" y="390" />
            </Array>
          </mxGeometry>
        </mxCell>
        <mxCell id="KOn1nOkOw1SVRUnO-NM9-161" value="blog" style="edgeLabel;html=1;align=center;verticalAlign=middle;resizable=0;points=[];" connectable="0" vertex="1" parent="KOn1nOkOw1SVRUnO-NM9-160">
          <mxGeometry x="0.0869" relative="1" as="geometry">
            <mxPoint as="offset" />
          </mxGeometry>
        </mxCell>
        <mxCell id="KOn1nOkOw1SVRUnO-NM9-166" value="7.0" style="swimlane;whiteSpace=wrap;html=1;fillColor=#0066CC;startSize=23;" vertex="1" parent="1">
          <mxGeometry x="656.77" y="593" width="160" height="80" as="geometry" />
        </mxCell>
        <mxCell id="KOn1nOkOw1SVRUnO-NM9-167" value="delete all likes on blog" style="text;html=1;align=center;verticalAlign=middle;resizable=0;points=[];autosize=1;strokeColor=none;fillColor=none;" vertex="1" parent="KOn1nOkOw1SVRUnO-NM9-166">
          <mxGeometry x="10" y="40" width="140" height="30" as="geometry" />
        </mxCell>
        <mxCell id="KOn1nOkOw1SVRUnO-NM9-168" value="" style="endArrow=none;html=1;rounded=0;strokeWidth=2;endFill=0;startArrow=classic;startFill=1;entryX=0.25;entryY=0;entryDx=0;entryDy=0;exitX=1;exitY=0.5;exitDx=0;exitDy=0;" edge="1" parent="1" source="KOn1nOkOw1SVRUnO-NM9-166" target="KOn1nOkOw1SVRUnO-NM9-100">
          <mxGeometry width="50" height="50" relative="1" as="geometry">
            <mxPoint x="847.6" y="631" as="sourcePoint" />
            <mxPoint x="888.6" y="550" as="targetPoint" />
            <Array as="points">
              <mxPoint x="910" y="630" />
            </Array>
          </mxGeometry>
        </mxCell>
        <mxCell id="KOn1nOkOw1SVRUnO-NM9-169" value="ratings" style="edgeLabel;html=1;align=center;verticalAlign=middle;resizable=0;points=[];" connectable="0" vertex="1" parent="KOn1nOkOw1SVRUnO-NM9-168">
          <mxGeometry x="0.0869" relative="1" as="geometry">
            <mxPoint as="offset" />
          </mxGeometry>
        </mxCell>
        <mxCell id="KOn1nOkOw1SVRUnO-NM9-170" value="" style="endArrow=classic;html=1;rounded=0;strokeWidth=2;" edge="1" parent="1">
          <mxGeometry width="50" height="50" relative="1" as="geometry">
            <mxPoint x="760" y="550" as="sourcePoint" />
            <mxPoint x="780" y="590" as="targetPoint" />
            <Array as="points">
              <mxPoint x="780" y="550" />
            </Array>
          </mxGeometry>
        </mxCell>
        <mxCell id="KOn1nOkOw1SVRUnO-NM9-171" value="" style="endArrow=none;html=1;rounded=0;strokeWidth=2;entryX=1;entryY=0.75;entryDx=0;entryDy=0;endFill=0;startArrow=classic;startFill=1;exitX=0.25;exitY=1;exitDx=0;exitDy=0;" edge="1" parent="1" source="KOn1nOkOw1SVRUnO-NM9-70" target="KOn1nOkOw1SVRUnO-NM9-112">
          <mxGeometry width="50" height="50" relative="1" as="geometry">
            <mxPoint x="1100" y="240" as="sourcePoint" />
            <mxPoint x="1070" y="230" as="targetPoint" />
            <Array as="points">
              <mxPoint x="1100" y="240" />
            </Array>
          </mxGeometry>
        </mxCell>
        <mxCell id="KOn1nOkOw1SVRUnO-NM9-172" value="error" style="edgeLabel;html=1;align=center;verticalAlign=middle;resizable=0;points=[];" connectable="0" vertex="1" parent="KOn1nOkOw1SVRUnO-NM9-171">
          <mxGeometry x="0.1055" y="-1" relative="1" as="geometry">
            <mxPoint as="offset" />
          </mxGeometry>
        </mxCell>
        <mxCell id="KOn1nOkOw1SVRUnO-NM9-173" value="" style="endArrow=classic;html=1;rounded=0;strokeWidth=2;entryX=1;entryY=0.5;entryDx=0;entryDy=0;endFill=1;startArrow=none;startFill=0;exitX=0;exitY=0.75;exitDx=0;exitDy=0;" edge="1" parent="1" source="KOn1nOkOw1SVRUnO-NM9-70" target="KOn1nOkOw1SVRUnO-NM9-112">
          <mxGeometry width="50" height="50" relative="1" as="geometry">
            <mxPoint x="1002" y="120" as="sourcePoint" />
            <mxPoint x="920" y="220" as="targetPoint" />
            <Array as="points">
              <mxPoint x="1040" y="140" />
              <mxPoint x="1040" y="220" />
            </Array>
          </mxGeometry>
        </mxCell>
        <mxCell id="KOn1nOkOw1SVRUnO-NM9-174" value="edit user blog" style="edgeLabel;html=1;align=center;verticalAlign=middle;resizable=0;points=[];" connectable="0" vertex="1" parent="KOn1nOkOw1SVRUnO-NM9-173">
          <mxGeometry x="0.1055" y="-1" relative="1" as="geometry">
            <mxPoint x="1" y="-47" as="offset" />
          </mxGeometry>
        </mxCell>
        <mxCell id="KOn1nOkOw1SVRUnO-NM9-176" value="" style="endArrow=classic;html=1;rounded=0;strokeWidth=2;endFill=1;startArrow=none;startFill=0;exitX=0.5;exitY=1;exitDx=0;exitDy=0;entryX=1;entryY=0.75;entryDx=0;entryDy=0;" edge="1" parent="1" source="KOn1nOkOw1SVRUnO-NM9-70" target="KOn1nOkOw1SVRUnO-NM9-141">
          <mxGeometry width="50" height="50" relative="1" as="geometry">
            <mxPoint x="1160" y="228" as="sourcePoint" />
            <mxPoint x="1040" y="630" as="targetPoint" />
            <Array as="points">
              <mxPoint x="1120" y="540" />
            </Array>
          </mxGeometry>
        </mxCell>
        <mxCell id="KOn1nOkOw1SVRUnO-NM9-177" value="delete user blog" style="edgeLabel;html=1;align=center;verticalAlign=middle;resizable=0;points=[];" connectable="0" vertex="1" parent="KOn1nOkOw1SVRUnO-NM9-176">
          <mxGeometry x="0.1055" y="-1" relative="1" as="geometry">
            <mxPoint as="offset" />
          </mxGeometry>
        </mxCell>
        <mxCell id="KOn1nOkOw1SVRUnO-NM9-178" value="" style="endArrow=none;html=1;rounded=0;strokeWidth=2;endFill=0;startArrow=classic;startFill=1;entryX=0;entryY=0.5;entryDx=0;entryDy=0;exitX=1;exitY=0.5;exitDx=0;exitDy=0;" edge="1" parent="1" source="KOn1nOkOw1SVRUnO-NM9-180" target="KOn1nOkOw1SVRUnO-NM9-1">
          <mxGeometry width="50" height="50" relative="1" as="geometry">
            <mxPoint x="210" y="320" as="sourcePoint" />
            <mxPoint x="320" y="400" as="targetPoint" />
            <Array as="points">
              <mxPoint x="230" y="320" />
              <mxPoint x="230" y="390" />
            </Array>
          </mxGeometry>
        </mxCell>
        <mxCell id="KOn1nOkOw1SVRUnO-NM9-179" value="comment on blog" style="edgeLabel;html=1;align=center;verticalAlign=middle;resizable=0;points=[];" connectable="0" vertex="1" parent="KOn1nOkOw1SVRUnO-NM9-178">
          <mxGeometry x="0.0869" relative="1" as="geometry">
            <mxPoint as="offset" />
          </mxGeometry>
        </mxCell>
        <mxCell id="KOn1nOkOw1SVRUnO-NM9-180" value="6.0" style="swimlane;whiteSpace=wrap;html=1;fillColor=#0066CC;startSize=23;" vertex="1" parent="1">
          <mxGeometry x="40" y="280" width="160" height="80" as="geometry" />
        </mxCell>
        <mxCell id="KOn1nOkOw1SVRUnO-NM9-181" value="comment" style="text;html=1;align=center;verticalAlign=middle;resizable=0;points=[];autosize=1;strokeColor=none;fillColor=none;" vertex="1" parent="KOn1nOkOw1SVRUnO-NM9-180">
          <mxGeometry x="45" y="40" width="70" height="30" as="geometry" />
        </mxCell>
        <mxCell id="KOn1nOkOw1SVRUnO-NM9-182" value="" style="endArrow=none;html=1;rounded=0;strokeWidth=2;endFill=0;startArrow=classic;startFill=1;exitX=0;exitY=0.5;exitDx=0;exitDy=0;" edge="1" parent="1" source="KOn1nOkOw1SVRUnO-NM9-180">
          <mxGeometry width="50" height="50" relative="1" as="geometry">
            <mxPoint x="70" y="420" as="sourcePoint" />
            <mxPoint x="120" y="80" as="targetPoint" />
            <Array as="points">
              <mxPoint x="20" y="320" />
              <mxPoint x="20" y="80" />
            </Array>
          </mxGeometry>
        </mxCell>
        <mxCell id="KOn1nOkOw1SVRUnO-NM9-185" value="" style="endArrow=classic;html=1;rounded=0;strokeWidth=2;" edge="1" parent="1">
          <mxGeometry width="50" height="50" relative="1" as="geometry">
            <mxPoint x="620" y="560" as="sourcePoint" />
            <mxPoint x="660" y="740" as="targetPoint" />
            <Array as="points">
              <mxPoint x="620" y="740" />
            </Array>
          </mxGeometry>
        </mxCell>
        <mxCell id="KOn1nOkOw1SVRUnO-NM9-186" value="8.0" style="swimlane;whiteSpace=wrap;html=1;fillColor=#0066CC;startSize=23;" vertex="1" parent="1">
          <mxGeometry x="656.77" y="700" width="160" height="80" as="geometry" />
        </mxCell>
        <mxCell id="KOn1nOkOw1SVRUnO-NM9-187" value="delete all likes on blog" style="text;html=1;align=center;verticalAlign=middle;resizable=0;points=[];autosize=1;strokeColor=none;fillColor=none;" vertex="1" parent="KOn1nOkOw1SVRUnO-NM9-186">
          <mxGeometry x="10" y="40" width="140" height="30" as="geometry" />
        </mxCell>
        <mxCell id="KOn1nOkOw1SVRUnO-NM9-189" value="" style="endArrow=none;html=1;rounded=0;strokeWidth=2;endFill=0;startArrow=classic;startFill=1;entryX=0.25;entryY=0;entryDx=0;entryDy=0;exitX=1;exitY=0.5;exitDx=0;exitDy=0;" edge="1" parent="1">
          <mxGeometry width="50" height="50" relative="1" as="geometry">
            <mxPoint x="816.77" y="753" as="sourcePoint" />
            <mxPoint x="909.77" y="800" as="targetPoint" />
            <Array as="points">
              <mxPoint x="909.77" y="750" />
            </Array>
          </mxGeometry>
        </mxCell>
        <mxCell id="KOn1nOkOw1SVRUnO-NM9-190" value="comment" style="edgeLabel;html=1;align=center;verticalAlign=middle;resizable=0;points=[];" connectable="0" vertex="1" parent="KOn1nOkOw1SVRUnO-NM9-189">
          <mxGeometry x="0.0869" relative="1" as="geometry">
            <mxPoint as="offset" />
          </mxGeometry>
        </mxCell>
        <mxCell id="KOn1nOkOw1SVRUnO-NM9-191" value="9.0" style="swimlane;whiteSpace=wrap;html=1;fillColor=#0066CC;startSize=23;" vertex="1" parent="1">
          <mxGeometry x="380" y="608" width="160" height="80" as="geometry" />
        </mxCell>
        <mxCell id="KOn1nOkOw1SVRUnO-NM9-192" value="delete comment" style="text;html=1;align=center;verticalAlign=middle;resizable=0;points=[];autosize=1;strokeColor=none;fillColor=none;" vertex="1" parent="KOn1nOkOw1SVRUnO-NM9-191">
          <mxGeometry x="25" y="40" width="110" height="30" as="geometry" />
        </mxCell>
        <mxCell id="KOn1nOkOw1SVRUnO-NM9-194" value="" style="endArrow=none;html=1;rounded=0;strokeWidth=2;endFill=0;startArrow=classic;startFill=1;exitX=0;exitY=0.75;exitDx=0;exitDy=0;" edge="1" parent="1" source="KOn1nOkOw1SVRUnO-NM9-191">
          <mxGeometry width="50" height="50" relative="1" as="geometry">
            <mxPoint x="210" y="330" as="sourcePoint" />
            <mxPoint x="320" y="400" as="targetPoint" />
            <Array as="points">
              <mxPoint x="240" y="670" />
              <mxPoint x="240" y="400" />
            </Array>
          </mxGeometry>
        </mxCell>
        <mxCell id="KOn1nOkOw1SVRUnO-NM9-195" value="delete" style="edgeLabel;html=1;align=center;verticalAlign=middle;resizable=0;points=[];" connectable="0" vertex="1" parent="KOn1nOkOw1SVRUnO-NM9-194">
          <mxGeometry x="0.0869" relative="1" as="geometry">
            <mxPoint as="offset" />
          </mxGeometry>
        </mxCell>
        <mxCell id="KOn1nOkOw1SVRUnO-NM9-196" value="" style="endArrow=none;html=1;rounded=0;exitX=0;exitY=0.75;exitDx=0;exitDy=0;strokeWidth=2;endFill=0;startArrow=classic;startFill=1;entryX=0;entryY=0.25;entryDx=0;entryDy=0;" edge="1" parent="1">
          <mxGeometry width="50" height="50" relative="1" as="geometry">
            <mxPoint x="320" y="415" as="sourcePoint" />
            <mxPoint x="380" y="633" as="targetPoint" />
            <Array as="points">
              <mxPoint x="270" y="415" />
              <mxPoint x="270" y="633" />
            </Array>
          </mxGeometry>
        </mxCell>
        <mxCell id="KOn1nOkOw1SVRUnO-NM9-197" value="error/confirmation" style="edgeLabel;html=1;align=center;verticalAlign=middle;resizable=0;points=[];" connectable="0" vertex="1" parent="KOn1nOkOw1SVRUnO-NM9-196">
          <mxGeometry x="0.0869" relative="1" as="geometry">
            <mxPoint as="offset" />
          </mxGeometry>
        </mxCell>
        <mxCell id="KOn1nOkOw1SVRUnO-NM9-198" value="" style="endArrow=classic;html=1;rounded=0;strokeWidth=2;endFill=1;startArrow=none;startFill=0;exitX=1;exitY=1;exitDx=0;exitDy=0;entryX=0.5;entryY=1;entryDx=0;entryDy=0;" edge="1" parent="1" source="KOn1nOkOw1SVRUnO-NM9-70" target="KOn1nOkOw1SVRUnO-NM9-191">
          <mxGeometry width="50" height="50" relative="1" as="geometry">
            <mxPoint x="1148.1" y="160" as="sourcePoint" />
            <mxPoint x="470" y="880" as="targetPoint" />
            <Array as="points">
              <mxPoint x="1160" y="880" />
              <mxPoint x="460" y="880" />
            </Array>
          </mxGeometry>
        </mxCell>
        <mxCell id="KOn1nOkOw1SVRUnO-NM9-199" value="delete user comment" style="edgeLabel;html=1;align=center;verticalAlign=middle;resizable=0;points=[];" connectable="0" vertex="1" parent="KOn1nOkOw1SVRUnO-NM9-198">
          <mxGeometry x="0.1055" y="-1" relative="1" as="geometry">
            <mxPoint as="offset" />
          </mxGeometry>
        </mxCell>
        <mxCell id="KOn1nOkOw1SVRUnO-NM9-200" value="" style="endArrow=none;html=1;rounded=0;strokeWidth=2;endFill=0;startArrow=classic;startFill=1;exitX=0;exitY=0.5;exitDx=0;exitDy=0;entryX=0.75;entryY=1;entryDx=0;entryDy=0;" edge="1" parent="1" source="KOn1nOkOw1SVRUnO-NM9-102" target="KOn1nOkOw1SVRUnO-NM9-180">
          <mxGeometry width="50" height="50" relative="1" as="geometry">
            <mxPoint x="700" y="840" as="sourcePoint" />
            <mxPoint x="190" y="370" as="targetPoint" />
            <Array as="points">
              <mxPoint x="160" y="820" />
            </Array>
          </mxGeometry>
        </mxCell>
        <mxCell id="KOn1nOkOw1SVRUnO-NM9-201" value="add comment" style="edgeLabel;html=1;align=center;verticalAlign=middle;resizable=0;points=[];" connectable="0" vertex="1" parent="KOn1nOkOw1SVRUnO-NM9-200">
          <mxGeometry x="0.0869" relative="1" as="geometry">
            <mxPoint as="offset" />
          </mxGeometry>
        </mxCell>
        <mxCell id="KOn1nOkOw1SVRUnO-NM9-214" style="edgeStyle=orthogonalEdgeStyle;rounded=0;orthogonalLoop=1;jettySize=auto;html=1;exitX=1;exitY=0.75;exitDx=0;exitDy=0;strokeWidth=2;entryX=0;entryY=0.5;entryDx=0;entryDy=0;" edge="1" parent="1" source="KOn1nOkOw1SVRUnO-NM9-203" target="KOn1nOkOw1SVRUnO-NM9-102">
          <mxGeometry relative="1" as="geometry">
            <mxPoint x="850" y="820" as="targetPoint" />
            <Array as="points">
              <mxPoint x="480" y="780" />
              <mxPoint x="480" y="820" />
            </Array>
          </mxGeometry>
        </mxCell>
        <mxCell id="KOn1nOkOw1SVRUnO-NM9-203" value="10.0" style="swimlane;whiteSpace=wrap;html=1;fillColor=#0066CC;startSize=23;" vertex="1" parent="1">
          <mxGeometry x="260" y="720" width="160" height="80" as="geometry" />
        </mxCell>
        <mxCell id="KOn1nOkOw1SVRUnO-NM9-204" value="edit comment" style="text;html=1;align=center;verticalAlign=middle;resizable=0;points=[];autosize=1;strokeColor=none;fillColor=none;" vertex="1" parent="KOn1nOkOw1SVRUnO-NM9-203">
          <mxGeometry x="30" y="40" width="100" height="30" as="geometry" />
        </mxCell>
        <mxCell id="KOn1nOkOw1SVRUnO-NM9-205" value="" style="endArrow=classic;html=1;rounded=0;exitX=1;exitY=0.5;exitDx=0;exitDy=0;strokeWidth=2;entryX=0.5;entryY=1;entryDx=0;entryDy=0;" edge="1" parent="1" source="KOn1nOkOw1SVRUnO-NM9-70" target="KOn1nOkOw1SVRUnO-NM9-203">
          <mxGeometry width="50" height="50" relative="1" as="geometry">
            <mxPoint x="1030" y="270" as="sourcePoint" />
            <mxPoint x="710" y="900" as="targetPoint" />
            <Array as="points">
              <mxPoint x="1190" y="120" />
              <mxPoint x="1190" y="900" />
              <mxPoint x="340" y="900" />
            </Array>
          </mxGeometry>
        </mxCell>
        <mxCell id="KOn1nOkOw1SVRUnO-NM9-207" value="edit commnet" style="edgeLabel;html=1;align=center;verticalAlign=middle;resizable=0;points=[];" connectable="0" vertex="1" parent="KOn1nOkOw1SVRUnO-NM9-205">
          <mxGeometry x="0.0534" relative="1" as="geometry">
            <mxPoint as="offset" />
          </mxGeometry>
        </mxCell>
        <mxCell id="KOn1nOkOw1SVRUnO-NM9-208" value="" style="endArrow=none;html=1;rounded=0;strokeWidth=2;endFill=0;startArrow=classic;startFill=1;entryX=0.25;entryY=1;entryDx=0;entryDy=0;exitX=1;exitY=0.25;exitDx=0;exitDy=0;" edge="1" parent="1" source="KOn1nOkOw1SVRUnO-NM9-203" target="KOn1nOkOw1SVRUnO-NM9-102">
          <mxGeometry width="50" height="50" relative="1" as="geometry">
            <mxPoint x="781" y="943" as="sourcePoint" />
            <mxPoint x="874" y="990" as="targetPoint" />
            <Array as="points">
              <mxPoint x="500" y="740" />
              <mxPoint x="500" y="870" />
              <mxPoint x="910" y="870" />
            </Array>
          </mxGeometry>
        </mxCell>
        <mxCell id="KOn1nOkOw1SVRUnO-NM9-209" value="comment" style="edgeLabel;html=1;align=center;verticalAlign=middle;resizable=0;points=[];" connectable="0" vertex="1" parent="KOn1nOkOw1SVRUnO-NM9-208">
          <mxGeometry x="0.0869" relative="1" as="geometry">
            <mxPoint as="offset" />
          </mxGeometry>
        </mxCell>
      </root>
    </mxGraphModel>
  </diagram>
</mxfile>
